<?xml version="1.0" standalone="no"?>
<!DOCTYPE svg PUBLIC "-//W3C//DTD SVG 20010904//EN"
 "http://www.w3.org/TR/2001/REC-SVG-20010904/DTD/svg10.dtd">
<svg version="1.0" xmlns="http://www.w3.org/2000/svg"
 width="300.000000pt" height="169.000000pt" viewBox="0 0 300.000000 169.000000"
 preserveAspectRatio="xMidYMid meet">
<metadata>
Created by potrace 1.10, written by Peter Selinger 2001-2011
</metadata>
<g transform="translate(0.000000,169.000000) scale(0.100000,-0.100000)"
fill="#000000" stroke="none">
<path d="M49 1081 c-56 -56 -34 -113 62 -161 63 -32 80 -61 60 -99 -16 -28
-72 -37 -112 -17 -41 21 -49 20 -49 -3 0 -14 13 -24 45 -37 38 -14 52 -15 85
-5 47 14 80 53 80 95 -1 41 -24 69 -87 100 -62 31 -80 57 -64 93 10 22 16 24
54 21 23 -3 50 -8 60 -12 13 -6 17 -4 17 11 0 24 -38 43 -86 43 -26 0 -44 -8
-65 -29z m122 9 c10 -6 19 -15 19 -21 0 -6 -7 -6 -19 1 -11 5 -36 10 -55 10
-27 0 -40 -6 -53 -26 -15 -24 -15 -29 -2 -53 8 -14 35 -37 61 -51 69 -38 88
-58 88 -97 0 -68 -81 -110 -153 -79 -21 8 -37 20 -37 25 0 14 1 14 40 -5 44
-22 98 -10 119 28 23 40 3 72 -68 108 -33 16 -65 39 -71 49 -29 56 11 121 75
121 20 0 45 -5 56 -10z"/>
<path d="M292 1098 c-8 -8 -12 -62 -12 -175 0 -163 0 -163 23 -162 17 1 18 2
4 6 -16 4 -17 18 -15 166 l3 162 47 3 c92 6 147 -41 134 -114 -9 -46 -44 -72
-106 -81 -34 -5 -55 -13 -57 -23 -3 -10 -2 -11 4 -4 4 6 30 14 58 18 118 15
155 148 55 198 -40 21 -120 24 -138 6z"/>
<path d="M562 1097 c-9 -11 -12 -58 -10 -173 3 -156 3 -159 26 -162 21 -3 22
-1 22 77 0 67 3 80 18 84 13 4 11 5 -5 6 -22 1 -23 -2 -23 -79 0 -65 -3 -80
-15 -80 -13 0 -15 22 -13 163 l3 162 40 3 c47 4 107 -12 125 -33 18 -22 15
-83 -6 -108 l-18 -22 23 21 c32 30 32 88 -2 121 -31 32 -144 45 -165 20z"/>
<path d="M847 1103 c-4 -3 -7 -82 -7 -175 0 -161 1 -168 20 -168 19 0 20 7 20
175 0 139 -3 175 -13 175 -8 0 -17 -3 -20 -7z m23 -168 c0 -103 -4 -165 -10
-165 -6 0 -10 62 -10 165 0 103 4 165 10 165 6 0 10 -62 10 -165z"/>
<path d="M977 1103 c-4 -3 -7 -82 -7 -175 0 -161 1 -168 20 -168 19 0 20 7 20
148 l0 147 78 -139 c81 -144 97 -164 126 -153 15 6 16 26 14 174 -3 160 -4
168 -23 168 -19 0 -20 -8 -23 -135 l-3 -135 -70 125 c-39 69 -75 131 -81 137
-11 14 -40 17 -51 6z m130 -158 l83 -149 0 153 c0 118 3 152 13 149 9 -4 12
-45 12 -164 0 -149 -1 -159 -19 -159 -14 0 -39 37 -97 139 -43 76 -82 143 -88
149 -8 8 -11 -33 -11 -141 0 -95 -4 -152 -10 -152 -11 0 -14 312 -3 324 19 19
43 -11 120 -149z"/>
<path d="M1378 1090 c-56 -30 -83 -82 -83 -160 0 -76 21 -120 75 -153 41 -25
120 -28 165 -6 30 14 30 15 30 94 l0 80 -65 0 c-51 0 -65 -3 -65 -15 0 -11 13
-16 48 -18 l47 -3 0 -50 c0 -44 -3 -51 -26 -59 -35 -14 -61 -12 -98 5 -44 21
-66 63 -66 125 0 117 79 170 187 125 44 -18 43 -18 43 0 0 8 -15 24 -32 35
-42 25 -111 25 -160 0z m152 -5 c42 -22 38 -37 -5 -19 -76 31 -146 10 -180
-56 -21 -41 -19 -128 4 -166 25 -40 83 -68 128 -61 53 9 63 23 63 83 l0 54
-50 0 c-27 0 -50 5 -50 10 0 6 27 10 60 10 l61 0 -3 -77 -3 -77 -45 -13 c-124
-37 -224 53 -206 185 3 24 13 56 22 72 37 61 139 89 204 55z"/>
<path d="M1668 1094 c-27 -14 -35 -33 -22 -47 4 -3 16 0 28 8 31 22 93 19 106
-4 25 -47 0 -104 -84 -198 -81 -88 -78 -93 50 -93 95 0 105 2 102 18 -3 14
-16 18 -76 20 l-73 3 50 56 c28 31 57 71 66 89 18 38 19 103 2 125 -30 40 -99
51 -149 23z m126 -15 c21 -16 26 -29 26 -62 0 -52 -20 -90 -88 -167 l-53 -60
80 0 c47 0 81 -4 81 -10 0 -6 -38 -10 -95 -10 -62 0 -95 4 -95 11 0 6 27 40
59 75 88 96 109 153 75 202 -18 27 -78 30 -112 6 -18 -12 -22 -13 -22 -1 0 37
102 49 144 16z"/>
<path d="M1962 991 c-40 -66 -72 -127 -72 -135 0 -13 13 -16 75 -16 l75 0 0
-41 c0 -36 2 -40 23 -37 17 2 23 10 25 40 2 29 8 37 25 40 29 4 28 32 0 36
-21 3 -22 8 -25 115 l-3 112 -26 3 c-23 3 -33 -9 -97 -117z m116 -9 c3 -112 3
-112 27 -112 14 0 25 -4 25 -10 0 -5 -11 -10 -25 -10 -22 0 -25 -4 -25 -40 0
-29 -4 -40 -15 -40 -11 0 -15 11 -15 40 l0 40 -75 0 c-48 0 -75 4 -75 11 0 11
84 156 123 212 11 16 26 27 36 25 13 -3 16 -21 19 -116z"/>
<path d="M2039 1068 c0 -7 0 -52 1 -100 l1 -88 -51 0 -52 0 19 33 c51 85 75
131 66 122 -5 -5 -31 -45 -56 -87 l-47 -78 65 0 65 0 0 105 c0 58 -2 105 -5
105 -3 0 -5 -6 -6 -12z"/>
<path d="M2221 945 c-33 -91 -61 -170 -61 -175 0 -6 9 -10 19 -10 14 0 23 12
33 43 l15 42 74 3 74 3 15 -43 c11 -31 21 -44 38 -46 12 -2 22 -2 22 0 0 2
-28 80 -63 173 -85 230 -85 230 -166 10z m156 -10 c40 -110 56 -165 48 -165
-8 0 -20 19 -27 43 l-15 42 -80 3 -81 3 -12 -38 c-13 -41 -26 -60 -35 -51 -4
4 52 169 104 301 21 53 36 31 98 -138z"/>
<path d="M2266 988 c-15 -46 -30 -89 -33 -95 -3 -10 14 -13 67 -13 53 0 71 3
68 13 -3 6 -18 49 -34 95 -16 45 -31 82 -34 82 -3 0 -18 -37 -34 -82z m67 -23
l26 -75 -58 0 -58 0 26 75 c14 41 29 75 32 75 3 0 17 -34 32 -75z"/>
<path d="M2507 1103 c-4 -3 -7 -82 -7 -175 0 -161 1 -168 20 -168 18 0 20 7
20 65 l0 65 30 0 c42 0 94 23 114 51 9 13 16 42 16 65 0 69 -50 104 -150 104
-20 0 -40 -3 -43 -7z m159 -34 c26 -25 33 -84 13 -121 -13 -25 -68 -48 -114
-48 l-35 0 0 -65 c0 -37 -4 -65 -10 -65 -6 0 -10 62 -10 166 l0 167 66 -6 c50
-4 71 -10 90 -28z"/>
<path d="M2530 1001 l0 -81 36 0 c61 0 103 33 104 81 0 45 -30 71 -88 77 l-52
5 0 -82z m117 43 c34 -47 -8 -114 -72 -114 l-35 0 0 71 0 72 47 -6 c29 -3 52
-12 60 -23z"/>
<path d="M2777 1103 c-4 -3 -7 -82 -7 -175 0 -161 1 -168 20 -168 18 0 20 7
20 65 l0 65 30 0 c75 0 132 49 132 114 0 47 -18 75 -57 92 -35 14 -126 19
-138 7z m137 -17 c35 -15 49 -41 48 -88 -2 -59 -51 -98 -127 -98 l-35 0 0 -65
c0 -37 -4 -65 -10 -65 -6 0 -10 62 -10 165 l0 165 50 0 c28 0 66 -6 84 -14z"/>
<path d="M2800 999 l0 -82 52 5 c59 6 88 32 88 80 0 45 -39 78 -95 78 l-45 0
0 -81z m110 51 c23 -23 26 -68 7 -94 -8 -11 -31 -20 -60 -23 l-47 -6 0 72 0
71 40 0 c27 0 47 -7 60 -20z"/>
<path d="M316 1072 c-2 -4 13 -6 35 -4 58 6 89 -18 89 -68 0 -47 -26 -70 -82
-70 l-37 0 -4 50 -4 50 1 -52 1 -53 41 -3 c57 -4 94 26 94 78 0 30 -6 43 -26
59 -26 21 -98 29 -108 13z"/>
<path d="M590 1009 l0 -72 45 6 c54 6 85 30 85 66 0 46 -34 71 -94 71 l-36 0
0 -71z m98 45 c26 -18 30 -65 7 -84 -8 -6 -32 -14 -55 -17 l-40 -6 0 62 0 61
33 0 c18 0 43 -7 55 -16z"/>
<path d="M697 918 c30 -32 76 -148 59 -148 -7 0 -23 26 -35 57 -25 64 -46 93
-70 93 -10 0 -7 -5 8 -13 16 -8 34 -35 51 -77 20 -49 32 -66 48 -68 12 -2 22
-2 22 1 0 2 -12 32 -26 67 -27 67 -53 109 -68 110 -5 0 0 -10 11 -22z"/>
</g>
</svg>
